inDegrees=no
num_controls=7
num_derivatives=13
num_iterations=397
num_multipliers=7
num_parameters=0
num_slacks=7
num_states=26
objective=5.804694
objective_accelerations=0.682543
objective_balance=0.120995
objective_effort=0.445955
objective_height=4.456541
objective_ligament=0.098660
solver_duration=4566.007535
status=Restoration_Failed
success=false
DataType=double
version=3
OpenSimVersion=4.4-2022-07-23-0e9fedc
endheader
time	/jointset/ground_pelvis/pelvis_tilt/value	/jointset/ground_pelvis/pelvis_tx/value	/jointset/ground_pelvis/pelvis_ty/value	/jointset/hip_l/hip_flexion_l/value	/jointset/hip_l/hip_adduction_l/value	/jointset/hip_l/hip_rotation_l/value	/jointset/back/lumbar_extension/value	/jointset/patellofemoral_l/patellar_flexion_l/value	/jointset/knee_l/knee_flexion_l/value	/jointset/knee_l/knee_adduction_l/value	/jointset/knee_l/knee_rotation_l/value	/jointset/ankle_l/ankle_angle_l/value	/jointset/subtalar_l/subtalar_angle_l/value	/jointset/ground_pelvis/pelvis_tilt/speed	/jointset/ground_pelvis/pelvis_tx/speed	/jointset/ground_pelvis/pelvis_ty/speed	/jointset/hip_l/hip_flexion_l/speed	/jointset/hip_l/hip_adduction_l/speed	/jointset/hip_l/hip_rotation_l/speed	/jointset/back/lumbar_extension/speed	/jointset/patellofemoral_l/patellar_flexion_l/speed	/jointset/knee_l/knee_flexion_l/speed	/jointset/knee_l/knee_adduction_l/speed	/jointset/knee_l/knee_rotation_l/speed	/jointset/ankle_l/ankle_angle_l/speed	/jointset/subtalar_l/subtalar_angle_l/speed	/forceset/tau_hip_flexion_l	/forceset/tau_hip_adduction_l	/forceset/tau_hip_rotation_l	/forceset/tau_knee_flexion_l	/forceset/tau_ankle_angle_l	/forceset/tau_subtalar_angle_l	/forceset/tau_lumbar_extension	lambda_cid13_p0	lambda_cid13_p1	lambda_cid13_p2	lambda_cid13_p3	lambda_cid13_p4	lambda_cid13_p5	lambda_cid14_p0	/jointset/ground_pelvis/pelvis_tilt/accel	/jointset/ground_pelvis/pelvis_tx/accel	/jointset/ground_pelvis/pelvis_ty/accel	/jointset/hip_l/hip_flexion_l/accel	/jointset/hip_l/hip_adduction_l/accel	/jointset/hip_l/hip_rotation_l/accel	/jointset/back/lumbar_extension/accel	/jointset/patellofemoral_l/patellar_flexion_l/accel	/jointset/knee_l/knee_flexion_l/accel	/jointset/knee_l/knee_adduction_l/accel	/jointset/knee_l/knee_rotation_l/accel	/jointset/ankle_l/ankle_angle_l/accel	/jointset/subtalar_l/subtalar_angle_l/accel	gamma_cid13_p0	gamma_cid13_p1	gamma_cid13_p2	gamma_cid13_p3	gamma_cid13_p4	gamma_cid13_p5	gamma_cid14_p0
0	-0.1601678624977619	0.0585747942260096	0.8979987577583912	0.3774920279260975	-0.2591368813572688	-0.272972482079392	-0.0126506700172305	0.03223623128433155	0.03223623128433527	-0.1745329133732031	0.1745293180043313	-0.04231376238535053	-0.009261284103666211	0	0	0	0	0	0	0	0	0	0	0	0	0	0.1629589675923144	-0.1004899319714211	-0.05509791018450764	-0.3307144062683758	0.3474040155850305	-0.03891381365460754	-0.1024526773577163	69.74565872542848	-1.083798335727413	6.363503833653336	-16.92279605564832	-589.3404230146682	-82.57858681546178	-39.07444071392185	-4.321917434950662	-1.957973450224952	-1.118358225350201	12.62899487825245	-1.289287571758749	3.321462120843611	-5.793308663514825	9.647058973713587	9.647058973713602	0.1841884533037797	0.03801266404184375	1.486774546968289	-0.9763435327007095	-3.313305721765967e-08	1.155874477343978e-07	8.323200601432091e-08	2.064375619612323e-09	6.842519374848494e-08	-9.974997410770384e-10	-1.077256524226371e-08
0.01	-0.1603768765591614	0.05847831283450041	0.8979441118524426	0.3781079603561275	-0.2592009571041608	-0.27280680374671	-0.01294129448463597	0.03270782568823234	0.03270782568823862	-0.1745255978037727	0.1745280659227982	-0.04224199741719931	-0.009310297309265962	-0.04159145397152038	-0.01919067522385139	-0.01088746989389725	0.1225996730113288	-0.01274231249073589	0.03298301112898662	-0.05771917583993107	0.0939118503473369	0.09391185034733762	0.001470592255754067	-0.0002406065417541003	0.01432427837682788	-0.009736881682884663	0.1569645204869222	-0.1059114915777472	-0.05396972928773554	-0.3240254584651832	0.337707142456685	-0.02922775489802768	-0.09750670969540552	66.97368140282292	-4.634674678887537	6.734940675828967	-16.00648287568712	-590.4852548273798	-89.14513168037961	-39.08788488274397	-4.046064679682878	-1.883773682783186	-1.067670992137738	11.98742369579189	-1.255804504700432	3.263813632205248	-5.700364399279199	9.202195654887454	9.202195654887495	0.1296449109369789	-0.05363247706835435	1.400945246433049	-0.9625240332076819	-6.232957773136904e-08	1.311540843160107e-07	1.245716116370657e-07	2.631213049881303e-08	-7.635565654912963e-08	-3.695710459769749e-10	-1.841844318113731e-08
0.02	-0.1609954662205361	0.05819309286589008	0.897781845323417	0.379932283552921	-0.2593902762593568	-0.2723158766980756	-0.01379693918144622	0.03410632811352609	0.03410632811351898	-0.1745033462519451	0.1745247007431561	-0.04202785151260048	-0.009454712041118663	-0.08191512000033105	-0.03774771542022658	-0.02152412461703823	0.2416781533514308	-0.02504868166023977	0.065049743189145	-0.1130040458818188	0.1853816042804376	0.1853816042804393	0.002987196480540297	-0.0004226196348837907	0.02847618728938435	-0.01908030525078148	0.1509700733813834	-0.111333051184087	-0.0528415483910042	-0.3173365106620804	0.3280102693283009	-0.01954169614146942	-0.09256074203316968	64.28432186098034	-8.200181360548171	7.108903336907048	-15.23876954276945	-590.3755442340206	-95.5970960796266	-39.12759608069747	-4.068359846409259	-1.831246444729316	-1.068195191198955	11.9247563440072	-1.202098907512336	3.138206307078268	-5.306447503906561	9.158639690866311	9.158639690866393	0.1933908471102551	0.04973135376644477	1.452300654114498	-0.8976519097030176	-9.15260982450784e-08	1.467207208976236e-07	1.659112172598104e-07	5.055988537801375e-08	-2.211365068467442e-07	2.583576491230887e-10	-2.606432112001092e-08
0.03	-0.1620111232958665	0.05772517478046922	0.8975141894405655	0.382930555489531	-0.259700292051934	-0.2715089474855668	-0.0151931827369172	0.03640751145622793	0.03640751145622458	-0.1744656527568446	0.1745199166538134	-0.04167338711842791	-0.009690520304196152	-0.1209884861903649	-0.05575786939037246	-0.03198725240974061	0.3574138156485718	-0.03687035076051529	0.09618025376877216	-0.1658649180178365	0.2744461482435238	0.2744461482435252	0.004547880246736842	-0.0005248310016668008	0.04234808089449312	-0.02801665116699248	0.1433487471234444	-0.1045630641054661	-0.05147814140316942	-0.308537597185713	0.317414429075601	-0.02081961538585797	-0.08660487692325916	60.85410071429163	-7.187499578916555	7.110707381998708	-13.41936854962151	-590.1755301440444	-92.31774197266229	-39.19224086752747	-3.792662841546208	-1.774184821160828	-1.032446454200009	11.3135946450136	-1.159611882828479	3.077074562237389	-5.218944990427824	8.719029590486937	8.719029590486727	0.1369039983880962	-0.03881213293159748	1.344336144754132	-0.8819625909282361	-1.101201472619421e-07	1.593459524331263e-07	1.934747704433574e-07	6.661597809157517e-08	-3.228559186517123e-07	7.607633192432614e-09	-3.092232004017387e-08
